<svg height='100px' width='100px' fill="#68217a" xmlns="http://www.w3.org/2000/svg" version="1.1" x="0px" y="0px" viewBox="0 0 100 100">
    <path d="M29.4843 3.675A18.549 18.549 90 1110.9352 22.224A18.5693 18.5693 90 0129.4843 3.675ZM14.83 18.2888a15.1335 15.1335 90 000 7.8705h6.6218a25.1775 25.1775 90 010-7.8705H14.83Zm10.9552-3.375h7.425a23.2402 23.2402 90 00-3.699-6.696A23.2267 23.2267 90 0025.7853 14.9137Zm-.8978 3.375a21.9307 21.9307 90 000 7.8705H34.081a21.9307 21.9307 90 000-7.8705Zm19.251 0H37.51a25.1775 25.1775 90 010 7.8705H44.125a15.1335 15.1335 90 000-7.8705ZM33.1765 29.5343h-7.425a23.2335 23.2335 90 003.699 6.696A23.2335 23.2335 90 0033.1765 29.5343Zm-7.3575 7.425a26.325 26.325 90 01-3.5978-7.425H16.1935A15.2347 15.2347 90 0025.8258 36.9525ZM42.775 29.5343H36.7405a26.325 26.325 90 01-3.5978 7.425A15.2347 15.2347 90 0042.775 29.5343ZM33.1428 7.5023a26.3655 26.3655 90 013.5978 7.425H42.775A15.2347 15.2347 90 0033.1428 7.5023Zm-16.956 7.425h6.0345a26.325 26.325 90 013.5978-7.425A15.2347 15.2347 90 0016.1935 14.9137Z" />
    <path d="M89 20h-3c-11.578 0-21 9.42-21 21v6c0 9.926-8.074 18-18 18c-1.655 0-3-1.346-3-3v-3.152c3.42-.697 6-3.727 6-7.348c0-4.135-3.363-7.5-7.5-7.5h-27C11.363 44 8 47.365 8 51.5c0 3.622 2.58 6.651 6 7.348V62c0 16.542 13.459 30 30 30c21.504 0 39-17.495 39-39v-9c0-3.309 2.692-6 6-6c1.658 0 3-1.343 3-3V23C92 21.343 90.658 20 89 20zM15.5 50h27c.826 0 1.5.672 1.5 1.5S43.326 53 42.5 53c-10.11 0-16.946 0-27 0c-.826 0-1.5-.672-1.5-1.5S14.674 50 15.5 50zM86 32.379c-5.171 1.336-9 6.04-9 11.621v9c0 18.196-14.804 33-33 33c-13.233 0-24-10.767-24-24v-3h18v3c0 4.963 4.037 9 9 9c13.233 0 24-10.767 24-24v-6c0-8.271 6.729-15 15-15V32.379z" />
</svg>