<svg height='100px' width='100px' fill="#68217a" xmlns="http://www.w3.org/2000/svg" version="1.1" x="0px" y="0px" viewBox="0 0 100 100" style="background-color: red">
    <path d="M89 20h-3c-11.578 0-21 9.42-21 21v6c0 9.926-8.074 18-18 18c-1.655 0-3-1.346-3-3v-3.152c3.42-.697 6-3.727 6-7.348c0-4.135-3.363-7.5-7.5-7.5h-27C11.363 44 8 47.365 8 51.5c0 3.622 2.58 6.651 6 7.348V62c0 16.542 13.459 30 30 30c21.504 0 39-17.495 39-39v-9c0-3.309 2.692-6 6-6c1.658 0 3-1.343 3-3V23C92 21.343 90.658 20 89 20zM15.5 50h27c.826 0 1.5.672 1.5 1.5S43.326 53 42.5 53c-10.11 0-16.946 0-27 0c-.826 0-1.5-.672-1.5-1.5S14.674 50 15.5 50zM86 32.379c-5.171 1.336-9 6.04-9 11.621v9c0 18.196-14.804 33-33 33c-13.233 0-24-10.767-24-24v-3h18v3c0 4.963 4.037 9 9 9c13.233 0 24-10.767 24-24v-6c0-8.271 6.729-15 15-15V32.379z" />
</svg>